<?xml version="1.0" encoding="utf-8"?>
<svg width="100" height="100" xmlns="http://www.w3.org/2000/svg" version="1.1">
  <path d="M 0 0 C 33 0 66 0 100 0 C 100 33 100 66 100 100 C 67 100 34 100 0 100 C 0 67 0 34 0 0 Z" id="svg_1" style="fill: rgb(103, 155, 219);"/>
  <g style="width: 70px; height: 70px;" transform="matrix(1.007387, 0, 0, 1.007374, 12.494971, -113.974802)">
    <path d="M 14.895 125.549 L 14.895 140.439 C 6.671 140.439 0.005 133.773 0.005 125.549 L 14.895 125.549 Z" style="stroke: rgb(0, 0, 0); stroke-width: 0;"/>
    <path d="M 74.455 125.549 C 74.455 129.662 72.788 133.384 70.094 136.078 C 67.399 138.773 63.677 140.439 59.565 140.439 L 59.565 125.549 L 74.455 125.549 Z" style="stroke: rgb(0, 0, 0); stroke-width: 0;"/>
    <path d="M 29.785 200 L 0.005 200 C 0.005 191.776 6.671 185.11 14.895 185.11 C 23.118 185.11 29.785 191.776 29.785 200 Z" style="stroke: rgb(0, 0, 0); stroke-width: 0;"/>
    <path d="M 74.455 200 L 44.675 200 C 44.675 191.776 51.341 185.11 59.565 185.11 C 67.789 185.11 74.455 191.776 74.455 200 Z" style="stroke: rgb(0, 0, 0); stroke-width: 0;"/>
    <rect y="140.439" width="44.671" height="59.561" style="stroke: rgb(0, 0, 0); stroke-width: 0;" x="14.895"/>
    <rect x="29.785" width="14.89" height="29.781" style="stroke: rgb(0, 0, 0); stroke-width: 0;" y="125.549"/>
  </g>
  <path d="M 21.134 49.445 C 29.384 49.445 41.664 49.435 43.084 49.445 C 44.504 49.455 49.094 50.255 49.084 50.665 C 49.074 51.085 49.084 51.475 49.084 51.885 C 36.544 51.885 24.004 51.885 11.084 51.885 C 11.084 51.485 11.064 51.025 11.084 50.665 C 11.104 50.295 14.154 49.435 15.084 49.445 L 21.134 49.445 Z" fill="#454545" id="svg_3" style="transform-box: fill-box; transform-origin: 50% 50%;" transform="matrix(0, 1, -1, 0, -0.000005, 0.000006)"/>
  <path d="M 24.998 26.627 C 25.378 26.627 25.165 25.854 25.557 25.854 C 22.985 24.67 20.902 23.041 18.933 20.801 C 16.964 18.561 16.422 17.288 15.974 14.383 C 15.214 14.383 14.365 14.248 13.582 14.248 C 13.917 17.379 15.372 19.704 18.055 22.359 C 20.738 25.014 23.628 25.777 24.998 26.627 Z" fill="#7D7D7D" id="svg_5" style=""/>
  <path d="M 43.975 26.435 C 44.87 26.435 44.951 26.397 45.637 24.337 C 45.419 22.638 45.323 19.979 45.34 18.843 C 45.357 17.707 45.845 16.875 45.397 13.97 C 44.637 13.97 44.377 13.835 43.594 13.835 C 43.929 16.966 43.545 19.218 43.653 20.769 C 43.761 22.32 43.856 24.261 43.975 26.435 Z" fill="#7D7D7D" id="path-1" style="stroke-width: 1;"/>
  <path d="M 25.235 73.688 C 25.615 73.688 25.402 74.461 25.794 74.461 C 23.222 75.645 21.139 77.274 19.17 79.514 C 17.201 81.754 16.659 83.027 16.211 85.932 C 15.451 85.932 14.602 86.067 13.819 86.067 C 14.154 82.936 15.609 80.611 18.292 77.956 C 20.975 75.301 23.865 74.538 25.235 73.688 Z" fill="#7D7D7D" id="path-2" style="stroke-width: 1;"/>
</svg>