<?xml version="1.0" encoding="utf-8"?>
<svg width="500" height="500" xmlns="http://www.w3.org/2000/svg">
  <g class="layer">
    <title>Layer 1</title>
    <path d="M 100 -100 C 141.827 -87.154 100 -100 100 -100 M 100 100 C 44.772 100 0 55.228 0 0 C 0 -55.228 44.772 -100 100 -100 L 100.141 2.914" fill="#000000" id="svg_1"/>
    <rect fill="#000000" height="100" id="svg_3" width="100" x="200" y="0"/>
    <rect fill="#000000" height="200" id="svg_6" rx="100" ry="100" width="200" x="0" y="400"/>
    <rect fill="#000000" height="200" id="svg_7" rx="100" ry="100" width="200" x="300" y="400"/>
    <rect fill="#000000" height="400" id="svg_8" width="300" x="100" y="100"/>
    <path d="M 481.411 99.998 C 523.236 87.158 481.411 99.998 481.411 99.998 M 481.411 -100 C 426.181 -100 381.411 -55.227 381.411 -0.002 C 381.411 55.228 426.181 99.998 481.411 99.998 L 481.551 -2.912" fill="#000000" id="path-1" style="stroke-width: 1; transform-box: fill-box; transform-origin: 50% 50%;" transform="matrix(-1, 0, 0, -1, 0.000028, -0.000003)"/>
  </g>
</svg>