<?xml version="1.0" encoding="utf-8"?>
<svg xmlns="http://www.w3.org/2000/svg" viewBox="0 0 50 50">
  <path d="M 35 25 C 35 27.761 33.881 30.261 32.071 32.071 C 30.261 33.881 27.761 35 25 35 C 22.239 35 19.739 33.881 17.929 32.071 C 16.119 30.261 15 27.761 15 25 C 15 22.239 16.119 19.739 17.929 17.929 C 19.739 16.119 22.239 15 25 15 C 27.761 15 30.261 16.119 32.071 17.929 C 33.881 19.739 35 22.239 35 25 L 30 25 L 28.536 21.464 L 25 20 L 21.464 21.464 L 20 25 L 21.464 28.536 L 25 30 L 28.536 28.536 L 30 25 Z" style="fill: black;"/>
</svg>